<svg width="110" height="110" viewBox="0 0 110 110" fill="none" xmlns="http://www.w3.org/2000/svg">
<g clip-path="url(#clip0_61_144)">
<path d="M39.3457 93.9478C60.7631 102.686 85.2093 92.4079 93.9478 70.9904C102.686 49.573 92.4079 25.1268 70.9904 16.3883C49.573 7.64984 25.1268 17.9282 16.3883 39.3457C7.64986 60.7631 17.9282 85.2093 39.3457 93.9478Z" fill="#FF003D"/>
<path d="M41.3975 88.9189C60.0376 96.5242 81.3137 87.5787 88.919 68.9386C96.5243 50.2985 87.5788 29.0224 68.9387 21.4171C50.2985 13.8118 29.0224 22.7573 21.4172 41.3974C13.8119 60.0375 22.7574 81.3136 41.3975 88.9189Z" stroke="white" stroke-width="3" stroke-miterlimit="10"/>
<path d="M78.2204 64.5734C73.0248 77.3075 58.4896 83.413 45.7626 78.2203C33.0355 73.0276 26.923 58.4895 32.1157 45.7625" stroke="white" stroke-width="3" stroke-miterlimit="10" stroke-linecap="round"/>
<path d="M47.3219 51.9667C50.2354 53.1555 54.6545 49.0769 57.1923 42.8571C59.73 36.6372 59.4254 30.6314 56.5119 29.4427C53.5984 28.2539 49.1793 32.3325 46.6416 38.5523C44.1038 44.7722 44.4085 50.778 47.3219 51.9667Z" fill="white"/>
<path d="M63.007 58.3664C65.9205 59.5551 70.3396 55.4766 72.8773 49.2567C75.4151 43.0369 75.1105 37.031 72.197 35.8423C69.2835 34.6536 64.8644 38.7321 62.3266 44.952C59.7889 51.1718 60.0935 57.1777 63.007 58.3664Z" fill="white"/>
</g>
<defs>
<clipPath id="clip0_61_144">
<rect width="83.7667" height="83.7667" fill="white" transform="translate(32.2107 0.565918) rotate(22.1958)"/>
</clipPath>
</defs>
</svg>
