<svg width="70" height="70" viewBox="0 0 70 70" fill="none" xmlns="http://www.w3.org/2000/svg">
<path d="M69.0114 51.0337V18.0828C69.0114 8.09596 60.946 0 50.9967 0L18.17 0C8.22072 0 0.155273 8.09596 0.155273 18.0828V51.0337C0.155273 61.0206 8.22072 69.1166 18.17 69.1166H50.9967C60.946 69.1166 69.0114 61.0206 69.0114 51.0337Z" fill="white"/>
<path d="M36.4908 40.7747C36.4908 41.8384 36.2789 42.7603 35.855 43.5403C35.4311 44.344 34.866 45.0058 34.136 45.5495C33.406 46.0932 32.5582 46.495 31.5927 46.7787C30.6272 47.0623 29.5911 47.2041 28.5079 47.2041H16.5216V22.29H29.803C30.6743 22.29 31.4514 22.4791 32.1343 22.8573C32.8408 23.2355 33.4295 23.7083 33.924 24.3229C34.4186 24.9138 34.7953 25.5993 35.0544 26.3557C35.3134 27.1121 35.4547 27.8922 35.4547 28.6486C35.4547 29.8541 35.1486 31.0123 34.5363 32.076C33.924 33.1397 33.0527 33.9198 31.8753 34.4398C33.2882 34.8653 34.4186 35.6217 35.2428 36.709C36.067 37.7964 36.4908 39.1673 36.4908 40.7983V40.7747ZM21.3255 26.4266V32.7143H27.7543C28.5785 32.7143 29.2614 32.4306 29.8266 31.8633C30.3917 31.296 30.6743 30.5396 30.6743 29.5468C30.6743 28.554 30.4153 27.8213 29.8972 27.2776C29.3792 26.7103 28.7198 26.4266 27.9662 26.4266H21.3255ZM31.6398 39.8528C31.6398 39.4037 31.5692 38.9782 31.4043 38.5764C31.263 38.1746 31.0511 37.82 30.7921 37.5127C30.533 37.2054 30.2269 36.969 29.8737 36.8036C29.5204 36.6381 29.1437 36.5436 28.7198 36.5436H21.302V43.0912H28.4608C28.9082 43.0912 29.3085 43.0203 29.7088 42.8548C30.0856 42.6894 30.4153 42.453 30.6979 42.1693C30.9805 41.8857 31.1924 41.5311 31.3572 41.1293C31.5221 40.7274 31.5927 40.302 31.5927 39.8765L31.6398 39.8528Z" fill="black"/>
<path d="M46.9464 47.181C45.5335 47.181 44.2383 46.9446 43.0844 46.4482C40.8002 45.479 39.1989 43.848 38.257 41.5315C37.8095 40.4206 37.5976 39.2623 37.5976 38.0332C37.5976 36.804 37.8095 35.5749 38.2334 34.4402C39.1518 32.1001 40.7531 30.4455 43.0609 29.4527C44.2148 28.9563 45.5335 28.6963 46.9699 28.6963C48.4064 28.6963 49.7016 28.9563 50.8555 29.4527C54.5997 31.0837 56.3658 34.7475 56.201 38.695C56.201 38.955 56.1539 39.1914 56.1068 39.3805H42.4015C42.4722 40.0897 42.637 40.7042 42.9196 41.2479C43.2022 41.7916 43.5318 42.2643 43.9793 42.6425C44.4031 43.0207 44.8977 43.328 45.4393 43.5171C45.9809 43.7299 46.5461 43.8244 47.1348 43.8244C48.0296 43.8244 48.9009 43.6117 49.7016 43.1625C50.5022 42.7134 51.0439 42.1461 51.35 41.4134L55.2355 42.5007C54.5761 43.8717 53.54 44.9826 52.1035 45.8572C50.6671 46.7318 48.9716 47.1573 46.9699 47.1573L46.9464 47.181ZM51.5384 36.4494C51.4206 35.1021 50.9261 34.0384 50.0548 33.2347C49.1835 32.431 48.1238 32.0292 46.8993 32.0292C46.287 32.0292 45.7219 32.1474 45.1802 32.3601C44.6386 32.5729 44.1912 32.8802 43.7673 33.2584C43.367 33.6366 43.0373 34.1093 42.7783 34.653C42.5193 35.1967 42.378 35.7876 42.3309 36.4494H51.5384Z" fill="black"/>
<path d="M40.965 23.4722H52.8335V26.4269H40.965V23.4722Z" fill="black"/>
</svg>
