<svg width="192" height="192" viewBox="0 0 192 192" fill="none" xmlns="http://www.w3.org/2000/svg">
<g clip-path="url(#clip0_21_12671)">
<path d="M68.4226 163.591C105.752 178.821 148.36 160.907 163.591 123.577C178.821 86.2481 160.907 43.64 123.577 28.4094C86.2482 13.1788 43.64 31.0934 28.4094 68.4226C13.1789 105.752 31.0934 148.36 68.4226 163.591Z" fill="#FF003D"/>
<path d="M71.9988 154.826C104.487 168.081 141.57 152.49 154.826 120.001C168.081 87.5127 152.49 50.4299 120.001 37.1743C87.5127 23.9188 50.4299 39.5102 37.1744 71.9988C23.9188 104.487 39.5103 141.57 71.9988 154.826Z" stroke="white" stroke-width="5" stroke-miterlimit="10"/>
<path d="M136.179 112.393C127.123 134.588 101.789 145.229 79.6069 136.179C57.4245 127.128 46.7708 101.789 55.8213 79.6069" stroke="white" stroke-width="5" stroke-miterlimit="10" stroke-linecap="round"/>
<path d="M82.3248 90.4204C87.4028 92.4922 95.105 85.3836 99.5281 74.5428C103.951 63.702 103.42 53.2342 98.3423 51.1623C93.2643 49.0905 85.5621 56.1991 81.1389 67.0399C76.7158 77.8807 77.2467 88.3485 82.3248 90.4204Z" fill="white"/>
<path d="M109.663 101.574C114.741 103.646 122.443 96.5377 126.866 85.6968C131.289 74.856 130.759 64.3883 125.681 62.3164C120.602 60.2445 112.9 67.3532 108.477 78.194C104.054 89.0348 104.585 99.5026 109.663 101.574Z" fill="white"/>
</g>
<defs>
<clipPath id="clip0_21_12671">
<rect width="146" height="146" fill="white" transform="translate(55.9868 0.832031) rotate(22.1958)"/>
</clipPath>
</defs>
</svg>
