<svg width="239" height="65" viewBox="0 0 239 65" fill="none" xmlns="http://www.w3.org/2000/svg">
<path d="M227.105 19.0303C228.738 20.0325 230.15 20.8643 231.476 21.7263C240.252 27.449 241.409 34.6148 234.64 41.2395C231.408 44.3965 227.02 46.9322 222.054 49.1371C210.727 54.1682 197.937 57.4756 184.382 59.5802C141.217 66.2851 97.6598 66.5858 53.967 61.4945C42.3677 60.1415 31.1256 58.0468 20.6999 54.6593C14.9343 52.7851 9.69589 50.5101 5.68207 47.3832C-0.984951 42.1716 -1.73329 36.6293 3.16493 30.8264C6.46443 26.9178 11.5667 23.8911 17.2813 21.1951C27.4179 16.4145 38.7621 12.8265 50.7185 9.97018C94.4963 -0.483009 139.635 -2.45739 185.811 2.83435C198.345 4.27755 210.319 6.74302 221.102 10.9022C223.364 11.7742 225.592 12.7263 227.616 13.7886C231.647 15.9134 231.561 16.6049 227.105 19.0303ZM186.134 8.10604C186.168 7.98578 186.185 7.86551 186.219 7.75527C183.583 7.41451 180.964 7.01362 178.293 6.74302C142.101 3.17511 106.351 4.26753 71.2128 10.5615C55.8888 13.3076 41.1942 17.0058 28.0132 22.4479C23.0129 24.5124 18.1657 26.8877 14.1859 29.6138C5.00176 35.9077 5.98821 42.2919 17.0262 47.4233C21.7884 49.6382 27.3839 51.372 32.9794 52.8152C45.0209 55.9121 57.8447 57.4655 70.8216 58.5179C101.776 61.0435 132.679 60.7929 163.463 57.666C179.994 55.9923 195.93 53.1159 210.506 48.0446C216.476 45.97 222.003 43.5447 226.204 40.2373C233.211 34.7251 232.548 28.8922 224.214 24.0915C221.629 22.6082 218.755 21.2552 215.744 20.0826C201.509 14.5403 185.709 12.2352 168.769 12.4657C165.146 12.5158 161.541 12.7062 157.918 12.7864C155.673 12.8365 153.853 12.3054 153.7 10.8722C153.581 9.63945 155.044 8.91784 157.051 8.7174C160.622 8.37664 164.211 7.88555 167.8 7.84546C173.905 7.77531 180.028 8.00582 186.134 8.10604Z" fill="#2E54FB"/>
</svg>
