<svg width="277" height="78" viewBox="0 0 277 78" fill="none" xmlns="http://www.w3.org/2000/svg">
<path d="M122.857 73.3646C152.886 72.8937 186.341 71.0704 219.218 65.6504C229.425 63.9674 239.516 61.9637 248.913 58.6676C253.15 57.1849 257.299 55.4518 261 53.408C263.704 51.9153 266.046 49.9116 267.781 47.8278C271.916 42.8386 270.759 37.6792 264.441 33.9523C260.725 31.7683 256.446 29.9249 252.065 28.4222C239.299 24.0542 225.796 21.0887 211.989 18.7545C200.553 16.8209 188.9 16.0595 177.204 15.5486C175.83 15.4885 174.327 15.5486 173.127 15.1679C172.172 14.8673 170.886 13.9356 171.001 13.3946C171.146 12.6332 172.259 11.7416 173.3 11.3509C174.269 10.9802 175.7 11.1505 176.929 11.1405C195.955 11.0103 214.331 13.6451 232.215 17.9029C240.933 19.9767 249.492 22.4713 257.819 25.2163C262.2 26.659 266.32 28.7428 269.877 31.047C277.395 35.9059 278.913 42.488 274.662 48.9598C272.45 52.336 269.067 55.0711 264.918 57.3853C257.602 61.4628 249.188 64.0675 240.427 66.2215C223.497 70.3791 205.974 72.7434 188.249 74.4866C167.17 76.5604 145.961 77.7125 124.665 77.953C99.1614 78.2335 73.8027 77.3318 48.8633 73.2544C38.9165 71.6314 29.36 69.257 20.5264 65.6404C14.7723 63.2861 9.50969 60.521 5.49047 56.7541C-1.01546 50.663 -1.66605 44.1911 3.14834 37.4487C5.85192 33.6618 9.84224 30.5461 14.3241 27.7209C26.136 20.2672 40.0587 15.2581 54.791 11.2908C74.0196 6.11129 94.0579 3.24604 114.472 1.5329C140.626 -0.651101 166.809 -0.390636 192.948 1.61304C215.516 3.34621 237.767 6.21147 259.106 11.7917C261.839 12.503 264.484 13.3946 267.13 14.2562C268.981 14.8573 270.181 15.789 269.385 17.3118C268.793 18.4439 267 18.7845 264.614 18.0432C251.169 13.8254 236.856 11.6915 222.528 9.6077C205.743 7.16322 188.77 5.88087 171.666 5.12949C141.291 3.80707 111.291 5.4601 81.6966 10.4092C65.7498 13.0741 50.4248 16.9311 36.1406 22.5915C28.7528 25.5169 21.7987 28.883 15.9578 33.221C13.7603 34.854 11.7073 36.6272 10.0591 38.5307C4.91217 44.4716 5.66395 50.3123 12.6181 55.2514C16.1313 57.7359 20.2806 59.9099 24.5601 61.7333C34.1166 65.8107 44.8152 67.9446 55.7307 69.4975C76.6653 72.473 97.8747 73.3846 122.857 73.3546V73.3646Z" fill="#00FF94"/>
</svg>
