<svg width="192" height="78" viewBox="0 0 192 78" fill="none" xmlns="http://www.w3.org/2000/svg">
<path d="M84.9776 73.2301C105.748 72.7601 128.888 70.9401 151.628 65.5301C158.688 63.8501 165.668 61.8501 172.168 58.5601C175.098 57.0801 177.968 55.3501 180.528 53.3101C182.398 51.8201 184.018 49.8201 185.218 47.7401C188.078 42.7601 187.278 37.6101 182.908 33.8901C180.338 31.7101 177.378 29.8701 174.348 28.3701C165.518 24.0101 156.178 21.0501 146.628 18.7201C138.718 16.7901 130.658 16.0301 122.568 15.5201C121.618 15.4601 120.578 15.5201 119.748 15.1401C119.088 14.8401 118.198 13.9101 118.278 13.3701C118.378 12.6101 119.148 11.7201 119.868 11.3301C120.538 10.9601 121.528 11.1301 122.378 11.1201C135.538 10.9901 148.248 13.6201 160.618 17.8701C166.648 19.9401 172.568 22.4301 178.328 25.1701C181.358 26.6101 184.208 28.6901 186.668 30.9901C191.868 35.8401 192.918 42.4101 189.978 48.8701C188.448 52.2401 186.108 54.9701 183.238 57.2801C178.178 61.3501 172.358 63.9501 166.298 66.1001C154.588 70.2501 142.468 72.6101 130.208 74.3501C115.628 76.4201 100.958 77.5701 86.2276 77.8101C68.5876 78.0901 51.0476 77.1901 33.7976 73.1201C26.9176 71.5001 20.3076 69.1301 14.1976 65.5201C10.2176 63.1701 6.57763 60.4101 3.79763 56.6501C-0.702371 50.5701 -1.15237 44.1101 2.17763 37.3801C4.04763 33.6001 6.80765 30.4901 9.90765 27.6701C18.0776 20.2301 27.7076 15.2301 37.8976 11.2701C51.1976 6.10008 65.0576 3.24009 79.1776 1.53009C97.2676 -0.649907 115.378 -0.38992 133.458 1.61008C149.068 3.34008 164.458 6.20008 179.218 11.7701C181.108 12.4801 182.938 13.3701 184.768 14.2301C186.048 14.8301 186.878 15.7601 186.328 17.2801C185.918 18.4101 184.678 18.7501 183.028 18.0101C173.728 13.8001 163.828 11.6701 153.918 9.59009C142.308 7.15009 130.568 5.87009 118.738 5.12009C97.7276 3.80009 76.9776 5.45009 56.5076 10.3901C45.4776 13.0501 34.8776 16.9001 24.9976 22.5501C19.8876 25.4701 15.0777 28.8301 11.0377 33.1601C9.51765 34.7901 8.09763 36.5601 6.95763 38.4601C3.39763 44.3901 3.91762 50.2201 8.72762 55.1501C11.1576 57.6301 14.0276 59.8001 16.9876 61.6201C23.5976 65.6901 30.9976 67.8201 38.5476 69.3701C53.0276 72.3401 67.6976 73.2501 84.9776 73.2201V73.2301Z" fill="#00FF94"/>
</svg>
