<svg width="70" height="70" viewBox="0 0 70 70" fill="none" xmlns="http://www.w3.org/2000/svg">
<path d="M69.2133 51.1052V18.1081C69.2133 8.10729 61.106 0 51.1052 0L18.1081 0C8.10729 0 0 8.10729 0 18.1081V51.1052C0 61.106 8.10729 69.2133 18.1081 69.2133H51.1052C61.106 69.2133 69.2133 61.106 69.2133 51.1052Z" fill="white"/>
<path d="M44.4064 69.213C44.4064 66.3489 44.4064 63.4611 44.4064 60.5969C44.4064 58.8453 44.217 57.1173 43.2702 55.5787C42.9861 55.1289 42.6311 54.7265 42.2997 54.3005C43.5779 54.0638 44.8798 53.8981 46.1343 53.5667C49.4956 52.7145 52.5018 51.2233 54.5375 48.2881C56.0524 46.134 56.7389 43.6486 57.0229 41.0685C57.2596 39.0565 57.3306 37.0445 56.9046 35.0561C56.4785 33.0441 55.6027 31.2451 54.2771 29.7065C53.9457 29.3278 53.8747 29.0201 54.0404 28.523C54.9162 25.8482 54.5611 23.2444 53.567 20.688C53.5196 20.5459 53.2593 20.4039 53.0936 20.3802C51.9337 20.2146 50.8212 20.5459 49.8033 21.0194C48.1464 21.8005 46.5367 22.7 44.9035 23.5285C44.6194 23.6705 44.2407 23.7652 43.9566 23.6942C38.7964 22.3923 33.6599 22.3923 28.4996 23.6942C28.1919 23.7652 27.7658 23.6705 27.5055 23.5048C25.4224 22.1792 23.1974 21.114 20.8066 20.4749C20.7593 20.4749 20.7356 20.4513 20.6883 20.4513C19.1733 20.1435 18.913 20.3092 18.4632 21.7768C17.7768 24.1439 17.6347 26.4873 18.4632 28.8544C18.5342 29.0438 18.4632 29.3751 18.3212 29.5172C15.5991 32.5944 14.9599 36.2633 15.315 40.1927C15.528 42.5834 16.0725 44.8795 17.1377 47.0335C18.6052 50.0161 21.1143 51.8387 24.1442 52.9039C26.0379 53.5667 28.0736 53.9217 30.0619 54.4188C30.0856 54.4188 30.0619 54.3241 30.0619 54.4188C29.0441 55.484 28.4523 56.7859 28.2156 58.2298C28.1919 58.4192 28.0499 58.6796 27.9079 58.7269C25.6118 59.579 23.3157 60.0288 21.067 58.6559C20.0492 58.0168 19.2917 57.1173 18.6763 56.0994C17.7294 54.4898 16.3802 53.3063 14.5812 52.7855C13.9421 52.5962 13.1846 52.6435 12.4982 52.6909C12.0248 52.7145 11.8827 53.0696 12.1905 53.472C12.4745 53.827 12.7822 54.2531 13.161 54.4662C14.8889 55.4603 15.8594 57.0463 16.6642 58.7979C17.1377 59.8394 17.5401 60.8809 18.4159 61.6857C19.8125 62.9403 21.4931 63.4374 23.3157 63.5084C24.8543 63.5794 26.3929 63.5084 28.0025 63.5084C28.0025 63.5084 28.0262 63.6504 28.0262 63.8161C28.0262 65.5441 27.9315 67.4851 27.9315 69.213H44.4301H44.4064Z" fill="black"/>
</svg>
