<svg width="69" height="70" viewBox="0 0 69 70" fill="none" xmlns="http://www.w3.org/2000/svg">
<path d="M68.8562 51.1065V18.1556C68.8562 8.16871 60.7907 0.0727539 50.8415 0.0727539L18.0147 0.0727539C8.06545 0.0727539 0 8.16871 0 18.1556V51.1065C0 61.0934 8.06545 69.1893 18.0147 69.1893H50.8415C60.7907 69.1893 68.8562 61.0934 68.8562 51.1065Z" fill="white"/>
<path d="M19.9692 28.2013H26.6335V49.7116H19.9692V28.2013ZM23.3131 17.5171C25.4561 17.5171 27.1751 19.2426 27.1751 21.3937C27.1751 23.5447 25.4561 25.2702 23.3131 25.2702C21.1702 25.2702 19.4512 23.5211 19.4512 21.3937C19.4512 19.2663 21.1702 17.5171 23.3131 17.5171Z" fill="black"/>
<path d="M30.8251 28.2014H37.2068V31.1325H37.301C38.1958 29.4305 40.3623 27.6577 43.612 27.6577C50.3469 27.6577 51.595 32.1016 51.595 37.8928V49.688H44.9307V39.2402C44.9307 36.7346 44.8836 33.5435 41.4691 33.5435C38.0546 33.5435 37.4658 36.2618 37.4658 39.0747V49.7117H30.8016V28.2014H30.8251Z" fill="black"/>
</svg>
