<svg width="173" height="199" viewBox="0 0 173 199" fill="none" xmlns="http://www.w3.org/2000/svg">
<g clip-path="url(#clip0_6_12547)">
<path d="M50.1971 51.825C56.7092 49.8778 64.6168 52.8767 72.47 60.2575C77.3129 64.8172 81.8582 70.786 85.887 77.7096C91.9396 81.1592 97.3079 89.0439 100.614 100.102C103.633 110.197 103.765 119.034 101.345 125.225C102.469 135.397 102.114 144.972 100.198 152.987C97.6878 163.477 92.7244 170.325 86.2123 172.272C70.6638 176.921 49.28 153.276 39.5173 120.626C29.7547 87.9767 34.6486 56.4742 50.1971 51.825Z" fill="white"/>
<path d="M76.9539 57.659C79.5589 47.9411 84.3734 41.6059 90.5986 39.7445C102.054 36.319 116.654 48.2515 127.463 67.8141C132.449 71.8425 136.793 78.9837 139.62 88.4389C142.13 96.8351 142.639 104.354 141.357 110.205C144.72 135.319 139.121 156.451 126.614 160.191C120.389 162.053 112.887 159.4 105.375 152.708C108.414 138.484 107.083 120.131 101.673 102.041C96.2643 83.951 87.3022 67.8797 76.9539 57.659Z" fill="white"/>
<path d="M21.3687 73.9367C20.3824 73.8783 19.4001 73.6938 18.4476 73.3654C15.5549 72.401 13.202 70.3501 11.8336 67.6202C10.4719 64.8779 10.252 61.7735 11.2285 58.8726C17.0662 41.5357 26.4425 30.3544 39.0951 25.6356C39.8554 25.3563 40.6405 25.0904 41.4246 24.8559C50.0213 22.2854 58.0764 23.2342 64.1346 24.9255C69.1837 18.9567 75.1149 14.9276 81.8278 12.9204C82.5545 12.7031 83.309 12.5087 84.05 12.3391C99.244 8.90803 111.695 17.1382 113.063 18.0908C117.928 21.4694 119.35 27.9668 116.543 33.0366C119.428 35.1258 122.279 37.589 125.06 40.4786C135.912 51.7545 145.009 68.4193 150.678 87.3775C156.347 106.336 157.89 125.259 155.003 140.654C151.731 158.138 143.065 169.814 130.605 173.539C123.404 175.692 115.581 174.82 107.881 171.125C103.474 178.44 97.4137 183.464 90.2131 185.617C77.7437 189.346 64.0908 184.344 51.767 171.523C40.9127 160.237 31.8082 143.585 26.1366 124.617C20.7788 106.699 19.1132 88.8304 21.3783 73.9339L21.3687 73.9367ZM107.929 25.4467C107.519 25.1537 97.6677 18.4431 86.0162 21.0747C85.4692 21.1967 84.928 21.3377 84.3925 21.4978C77.7944 23.4708 72.0868 28.2125 67.3987 35.6325C63.2724 33.7481 53.9439 30.4568 43.9894 33.4334C43.4061 33.6078 42.8189 33.8042 42.2279 34.0225C32.2369 37.7479 24.6661 47.0589 19.7443 61.7104C19.3016 63.0173 20.0049 64.4285 21.3108 64.8591C21.82 65.0291 22.3409 65.0293 22.8191 64.8863C23.0294 64.8234 23.2284 64.7223 23.4149 64.6146C25.6554 57.0221 29.0857 50.8305 33.5219 46.2611C36.5716 42.6987 40.0431 40.1639 43.9221 38.713C44.4012 38.5385 44.8832 38.3736 45.3613 38.2306C48.3162 37.3471 51.2269 37.1524 53.9211 37.3134C58.835 37.2681 63.9018 38.4659 68.9267 40.882C71.4267 36.7356 74.4494 33.3268 77.9219 30.7605C80.3768 28.6233 83.0201 27.1157 85.841 26.2722C86.2426 26.1521 86.6566 26.0387 87.0668 25.9472C88.3452 25.6585 89.6033 25.511 90.8229 25.479C96.7024 24.6564 102.779 25.6771 108.796 28.4512C109.24 27.3933 108.905 26.132 107.929 25.4467ZM87.6359 177.033C95.0182 174.826 100.715 168.133 103.955 158.028C112.21 164.696 120.655 167.16 128.028 164.955C146.799 159.342 152.961 126.401 142.062 89.9537C134.807 65.6907 122.084 46.8983 108.855 38.6822C105.81 39.3329 102.662 38.7358 100.057 36.9891C99.7998 36.8269 95.9821 34.476 91.6237 34.428C90.7986 34.5603 89.9725 34.7242 89.1597 34.9672C87.1707 35.562 85.3131 36.4916 83.5946 37.7123C81.7388 39.3794 79.9709 41.6542 78.3024 44.575L77.0326 46.7736L72.5264 54.6278L64.7033 50.0652L62.5957 48.8349C62.2605 48.6545 58.4345 46.6595 53.7583 46.2803C52.0521 46.3227 50.3743 46.5646 48.7583 47.0478C45.3636 48.0628 42.3852 49.9824 39.8406 52.6558C37.2043 55.9283 34.9044 60.4307 32.9793 66.1514C32.6336 67.1903 32.1199 68.1546 31.5078 69.0341C27.9118 82.9981 28.7268 101.994 34.7265 122.059C45.6247 158.506 68.8581 182.658 87.6292 177.045L87.6359 177.033Z" fill="white"/>
<path d="M48.7707 47.0545C56.1529 44.8471 64.589 47.3138 72.8437 53.982C76.0831 43.8769 81.7899 37.1813 89.1625 34.9768C107.934 29.364 131.167 53.5162 142.065 89.9633C152.963 126.41 146.802 159.352 128.031 164.965C120.648 167.172 112.212 164.706 103.958 158.037C100.718 168.142 95.0114 174.838 87.6388 177.043C68.8677 182.655 45.6342 158.503 34.7361 122.056C23.8379 85.609 29.9995 52.6673 48.7707 47.0545ZM126.611 160.182C142.159 155.533 147.053 124.03 137.291 91.3805C127.528 58.7308 106.144 35.0857 90.5957 39.735C84.3705 41.5964 79.556 47.9316 76.951 57.6495C87.2993 67.8702 96.2614 83.9415 101.671 102.031C107.08 120.121 108.411 138.474 105.372 152.698C112.884 159.391 120.386 162.043 126.611 160.182ZM86.2095 172.262C92.7215 170.315 97.685 163.468 100.195 152.978C103.447 139.397 102.239 121.351 96.8893 103.461C91.5401 85.5715 82.6434 69.8236 72.47 60.2575C64.614 52.8672 56.7092 49.8779 50.1971 51.8251C34.6485 56.4743 29.7546 87.9768 39.5173 120.626C49.28 153.276 70.6637 176.921 86.2123 172.272L86.2095 172.262Z" fill="#1D1D1B"/>
<path d="M129.005 113.596C124.559 114.926 118.252 106.969 114.92 95.8246C111.587 84.6798 112.491 74.5673 116.938 73.2376C121.384 71.908 127.691 79.8647 131.023 91.0095C134.356 102.154 133.452 112.267 129.005 113.596Z" fill="#1D1D1B"/>
<path d="M90.0001 125.26C85.5533 126.589 79.247 118.632 75.9146 107.488C72.5821 96.3429 73.4855 86.2303 77.9323 84.9007C82.379 83.5711 88.6853 91.5278 92.0178 102.673C95.3502 113.817 94.4469 123.93 90.0001 125.26Z" fill="#1D1D1B"/>
<path d="M108.548 28.9101C107.761 30.0394 106.211 30.3261 105.08 29.5416C105 29.4824 96.5441 23.7787 87.0668 25.9473C80.6205 27.4175 75.0475 32.1917 70.5068 40.1394L69.2533 42.3228L67.0808 41.0495C66.9662 40.9798 55.4539 34.3917 43.9317 38.7101C35.445 41.8922 28.8984 50.1694 24.4798 63.2984C24.2081 64.0968 23.5773 64.67 22.8315 64.893C22.3533 65.036 21.8324 65.0358 21.3232 64.8659C20.0144 64.4257 19.3112 63.0145 19.7567 61.7171C24.6909 47.0723 32.2493 37.7546 42.2403 34.0292C52.8387 30.0702 63.0423 33.6403 67.4082 35.6297C72.4815 27.6164 78.7371 22.7212 86.0257 21.0719C97.6773 18.4403 107.519 25.1538 107.939 25.4439C109.069 26.2284 109.345 27.7779 108.558 28.9072L108.548 28.9101Z" fill="#1D1D1B"/>
</g>
<defs>
<clipPath id="clip0_6_12547">
<rect width="130" height="168" fill="white" transform="matrix(-0.958086 0.28648 0.28648 0.958086 124.551 0)"/>
</clipPath>
</defs>
</svg>
