<svg width="256" height="35" viewBox="0 0 256 35" fill="none" xmlns="http://www.w3.org/2000/svg">
<path d="M247.806 35L234.039 21.7417C228.619 16.5348 220.119 16.5348 214.699 21.7417C204.673 31.3933 188.997 31.3933 178.971 21.7417C173.551 16.5094 165.051 16.5094 159.631 21.7417C149.605 31.3933 133.929 31.3679 123.903 21.7417C118.483 16.5094 109.983 16.5094 104.563 21.7417C94.5368 31.3679 78.8612 31.3679 68.835 21.7417C63.4147 16.5348 54.9153 16.5348 49.495 21.7417C39.4687 31.3679 23.7932 31.3933 13.767 21.7417L0 8.4833L8.19404 0L21.961 13.2583C27.3813 18.4652 35.8807 18.4652 41.3009 13.2583C51.3272 3.63208 67.0027 3.63208 77.029 13.2583C82.4493 18.4652 90.9487 18.4652 96.369 13.2583C106.395 3.63208 122.071 3.63208 132.097 13.2583C137.517 18.4906 146.017 18.4906 151.437 13.2583C161.463 3.60668 177.139 3.60668 187.165 13.2583C192.585 18.4906 201.085 18.4906 206.505 13.2583C216.531 3.60668 232.207 3.60668 242.233 13.2583L256 26.5167L247.806 35Z" fill="#FF003D"/>
</svg>
